<svg xmlns="http://www.w3.org/2000/svg" width="26" height="26" fill="none"><path stroke="#232323" stroke-miterlimit="10" stroke-width="1.5" d="M22.623 19.686c-.015.36-.111.726-.296 1.078-.186.352-.42.683-.724.99-.512.518-1.068.885-1.689 1.109a5 5 0 0 1-1.964.296c-1.02-.044-2.098-.33-3.226-.87a17.6 17.6 0 0 1-3.352-2.125 29 29 0 0 1-3.157-2.939 28.4 28.4 0 0 1-2.647-3.386c-.77-1.174-1.38-2.341-1.812-3.491q-.645-1.74-.579-3.298c.03-.68.177-1.324.443-1.913.266-.599.67-1.142 1.22-1.619.667-.602 1.38-.882 2.119-.85.28.012.557.084.801.215.255.13.477.32.646.588l2.177 3.367c.17.257.29.492.37.716.08.214.122.426.114.615-.01.24-.091.477-.24.7-.14.225-.34.457-.59.686l-.794.757a.54.54 0 0 0-.177.393c-.003.08.004.15.02.23.027.082.054.143.072.204.165.337.457.78.874 1.319.427.538.884 1.089 1.38 1.64a30 30 0 0 0 1.526 1.537c.5.462.918.78 1.25.975.049.022.107.054.176.087a.7.7 0 0 0 .248.051.55.55 0 0 0 .417-.152l.791-.717c.26-.239.509-.418.744-.528.236-.13.468-.19.718-.18.19.008.388.057.604.156.216.1.44.24.683.42l3.206 2.49c.252.19.423.408.522.663.089.254.138.506.126.786Z"/><path stroke="#232323" stroke-linecap="round" stroke-linejoin="round" stroke-width="1.5" d="M19.557 10.216c.025-.6-.405-1.54-1.072-2.319-.61-.716-1.436-1.292-2.275-1.328M23.053 10.366a6.995 6.995 0 0 0-6.693-7.294"/></svg>